<?xml version="1.0" encoding="utf-8"?>
<!-- Generator: Adobe Illustrator 23.0.1, SVG Export Plug-In . SVG Version: 6.00 Build 0)  -->
<svg version="1.1" id="e8ab07fb-aa66-4eb8-9149-b5abc1630568"
	 xmlns="http://www.w3.org/2000/svg" xmlns:xlink="http://www.w3.org/1999/xlink" x="0px" y="0px" viewBox="0 0 671 412.8"
	 style="enable-background:new 0 0 671 412.8;" xml:space="preserve">
<style type="text/css">
	.st0{fill:#E6E6E6;}
	.st1{fill:#FFFFFF;}
	.st2{fill:#848484;}
	.st3{fill:#B3B3B3;}
	.st4{fill:#8C8585;}
	.st5{fill:#3F3D56;}
	.st6{opacity:0.3;enable-background:new    ;}
</style>
<title>searchh</title>
<rect x="0.3" y="0.4" class="st0" width="643.9" height="412.4"/>
<rect x="18.7" y="52.1" class="st1" width="607" height="336.2"/>
<rect class="st2" width="643.9" height="27.4"/>
<circle class="st1" cx="20.3" cy="14" r="5.1"/>
<circle class="st1" cx="39.6" cy="14" r="5.1"/>
<circle class="st1" cx="58.8" cy="14" r="5.1"/>
<rect x="73.8" y="87" class="st0" width="156" height="266.5"/>
<rect x="256.7" y="87" class="st3" width="130" height="73.3"/>
<rect x="256.7" y="180.7" class="st0" width="130" height="78.9"/>
<rect x="256.7" y="280.1" class="st0" width="130" height="73.3"/>
<rect x="414.6" y="87" class="st0" width="156" height="116.1"/>
<rect x="414.6" y="237.3" class="st4" width="156" height="116.1"/>
<path class="st5" d="M531.2,132.5c-41-38.5-102.5-32.8-137.2,13s-29.5,114.1,11.6,152.7c38.5,36.1,95.3,33.7,131.2-5.6l119.5,112.1
	c3.3,3.2,8.6,3.1,11.8-0.3c0.3-0.3,0.5-0.6,0.8-0.9c3.2-4.3,2.7-10.3-1.1-14l0,0L548.3,277.3C577.1,231.4,569.7,168.6,531.2,132.5z
	 M523.6,266.4c-26,34.3-72,38.6-102.8,9.7s-34.7-80.1-8.7-114.3s72-38.6,102.8-9.7l0,0C545.6,181,549.5,232.2,523.6,266.4
	L523.6,266.4z"/>
<path class="st6" d="M428.4,263.4c-29-25.8-34.4-70.6-12.4-103.1c-1.4,1.5-2.7,3-4,4.6c-25.9,32.4-22,80.7,8.7,108
	s76.7,23.2,102.6-9.2c1.3-1.6,2.5-3.3,3.7-5C500.3,287.1,457.4,289.1,428.4,263.4z"/>
</svg>
